# xmcd
#
# Track frame offsets:
#	150
#	12637
#	27751
#	39491
#	53703
#	65778
#	78656
#	91695
#	106221
#	119351
#	133452
#	147447
#	159803
#	173907
#	185636
#	197091
#	209380
#	222830
#	235160
#	249842
#	263704
#
# Disc length: 3701 seconds
#
# Revision: 0
# Processed by: cddbd v1.5.1PL0 Copyright (c) Steve Scherf et al.
# Submitted via: EasyCDDAExtractor 7.7.0.1
#
DISCID=2c0e7315
DTITLE=Arthur Crudup - Cool Disposition
DYEAR=1900
DGENRE=Blues
TTITLE0=Trainfare Blues
TTITLE1=Black Pony Blues
TTITLE2=Mean Old Frisco Blues
TTITLE3=Cry Your Blues Away
TTITLE4=Shout Sister Shout
TTITLE5=Give Me A 32-30
TTITLE6=That's All Right
TTITLE7=Death Valley Blues
TTITLE8=Hey Mama Everything All Right
TTITLE9=My Mama Don't Allow Me
TTITLE10=Dirt Road Blues
TTITLE11=Tired Of Worry
TTITLE12=Cool Disposition
TTITLE13=Come Back Baby
TTITLE14=Keep Your Arms Around Me
TTITLE15=Gonna Be Some Changes Made
TTITLE16=I Want My Lovin'
TTITLE17=Hand Me Down My Walking Cane
TTITLE18=Who's Been Foolin' You
TTITLE19=That's Why I'm Lonesome
TTITLE20=If I Get Lucky
EXTD=
EXTT0=
EXTT1=
EXTT2=
EXTT3=
EXTT4=
EXTT5=
EXTT6=
EXTT7=
EXTT8=
EXTT9=
EXTT10=
EXTT11=
EXTT12=
EXTT13=
EXTT14=
EXTT15=
EXTT16=
EXTT17=
EXTT18=
EXTT19=
EXTT20=
PLAYORDER=
